Girls Gone Dead 2012 UNRATED HDRip XviD HS

Source--- Who Else
 
http://www.imdb.com/title/tt1884318/

Format : AVI
Format/Info : Audio Video Interleave
Format profile : OpenDML
File size : 1.84 GiB
Duration : 1h 43mn
Overall bit rate : 2 544 Kbps
Writing application : Lavf52.103.0

Video
ID : 1
Format : MPEG-4 Visual
Format profile : Simple@L1
Format settings, BVOP : No
Format settings, QPel : No
Format settings, GMC : No warppoints
Format settings, Matrix : Default (H.263)
Codec ID : XVID
Duration : 1h 43mn
Bit rate : 2 404 Kbps
Width : 640 pixels
Height : 274 pixels
Display aspect ratio : 2.35:1
Frame rate : 23.976 fps
Color space : YUV
Chroma subsampling : 4:2:0
Bit depth : 8 bits
Scan type : Progressive
Compression mode : Lossy
Bits/(Pixel*Frame) : 0.572
Stream size : 1.74 GiB (94%)
Writing library : Lavc52.116.0

Audio
ID : 0
Format : MPEG Audio
Format version : Version 1
Format profile : Layer 3
Mode : Joint stereo
Mode extension : MS Stereo
Codec ID : 55
Codec ID/Hint : MP3
Duration : 1h 43mn
Bit rate mode : Constant
Bit rate : 128 Kbps
Channel(s) : 2 channels
Sampling rate : 44.1 KHz
Compression mode : Lossy
Stream size : 94.8 MiB (5%)
Alignment : Aligned on interleaves
Interleave, duration : 42 ms (1.00 video frame)
Writing library : LAME3.98.4


Poster:

 
http://i.imgur.com/vFonP.jpg


Screenshots:

 
http://i.imgur.com/1yNA2.png

 
http://i.imgur.com/pHeRe.png

 
http://i.imgur.com/nUFAG.png


ENJOY!